<?xml version="1.0" encoding="utf-8"?>
<!-- Generator: Adobe Illustrator 27.1.1, SVG Export Plug-In . SVG Version: 6.00 Build 0)  -->
<svg version="1.1" id="Layer_1" xmlns="http://www.w3.org/2000/svg" xmlns:xlink="http://www.w3.org/1999/xlink" x="0px" y="0px"
	 viewBox="0 0 720 180" style="enable-background:new 0 0 720 180;" xml:space="preserve">
<style type="text/css">
	.st0{fill:#070D26;}
	.st1{fill:#014CDA;}
</style>
<g>
	<g>
		<path class="st0" d="M688.26,44.92V32.31h-5.89l0,0c0-1.93,1.57-3.5,3.5-3.5h12.19v0c0,1.93-1.57,3.5-3.5,3.5h-2.35v16.56l0,0
			C690.03,48.87,688.26,47.1,688.26,44.92z M699.4,48.87V28.8l0,0c2.37,0,4.61,1.12,6.03,3.02l5.29,7.08h-1.84l5.14-7.05
			c1.4-1.91,3.62-3.05,5.99-3.05l0,0v20.07l0,0c-2.16,0-3.91-1.75-3.91-3.91V33.2l1.57,0.4l-7.72,10.06h-0.49L702,33.61l1.35-0.4
			v11.72C703.35,47.1,701.58,48.87,699.4,48.87L699.4,48.87z"/>
	</g>
	<g>
		<g>
			<g>
				<g>
					<circle class="st1" cx="26.27" cy="61.27" r="7.93"/>
					
						<ellipse transform="matrix(0.9871 -0.1602 0.1602 0.9871 -9.751 1.5857)" class="st1" cx="4.96" cy="61.27" rx="4.96" ry="4.96"/>
					
						<ellipse transform="matrix(0.9871 -0.1602 0.1602 0.9871 -13.1291 3.7258)" class="st1" cx="16.55" cy="83.3" rx="4.96" ry="4.96"/>
				</g>
			</g>
			<g>
				<path class="st1" d="M136.93,93.7c-0.21-1.91-1.83-3.36-3.76-3.36h-20.31c-3.93,0-7.85-0.67-11.51-2.13
					c-0.04-0.02-0.08-0.03-0.12-0.05c-2.01-0.81-3.85-1.95-5.6-3.23c-0.89-0.65-1.84-1.22-2.84-1.7c-0.9-0.43-1.84-0.79-2.82-1.07
					c-1.54-0.43-3.17-0.67-4.85-0.67c-10.27,0-18.51,8.71-17.74,19.14c0.66,8.9,8.01,16.02,16.93,16.41
					c1.97,0.09,3.87-0.14,5.66-0.65c1.33-0.38,2.6-0.9,3.79-1.57c0.64-0.36,1.26-0.76,1.85-1.19c0.89-0.65,1.81-1.27,2.78-1.8
					c1.2-0.65,2.5-1.27,3.9-1.82c3.32-1.29,6.86-1.88,10.42-1.88l5.91-0.14c-3.86,14.8-17.31,25.72-33.32,25.72
					c-19.1,0-34.56-15.55-34.43-34.68c0.13-19,15.9-35.9,34.89-35.9c7.76-0.52,17.42-0.22,27.03,0.05l-13.84-14
					c-4.35-1.18-8.93-1.81-13.66-1.81c-6.52,0-12.75,1.21-18.5,3.4c0.98,1.13,1.78,2.45,2.35,3.92c1.45,3.77,1.07,7.78-0.7,11.08
					c1.04-2.9,1.09-6.17-0.1-9.28c-2.64-6.87-10.35-10.3-17.21-7.66c-0.38,0.15-0.76,0.31-1.12,0.49c-0.01,0.01-0.02,0.01-0.03,0.02
					c-0.32,0.16-0.62,0.33-0.92,0.51c-0.09,0.06-0.18,0.11-0.27,0.17c-0.21,0.13-0.42,0.28-0.62,0.42c-0.27,0.2-0.54,0.4-0.8,0.62
					c-0.02,0.01-0.03,0.02-0.05,0.04c-0.83,0.71-1.58,1.52-2.22,2.4c-0.03,0.05-0.07,0.09-0.1,0.14c-0.16,0.23-0.31,0.46-0.46,0.7
					c-0.07,0.11-0.14,0.22-0.2,0.34c-0.91,1.6-1.51,3.4-1.68,5.31c-0.26,2.75,0.33,5.35,1.53,7.58c-1.57,2.03-2.97,4.18-4.23,6.43
					c4.04,0.37,7.2,3.76,7.2,7.89c0,2.55-1.2,4.8-3.07,6.26c1.05-1.34,1.67-3.03,1.67-4.86c0-3.93-2.86-7.18-6.61-7.81
					c-0.21-0.03-0.42-0.06-0.63-0.08c-0.23-0.02-0.45-0.03-0.68-0.03c0,0,0,0,0,0c0,0,0,0,0,0c-0.25,0-0.5,0.01-0.75,0.04
					c-0.09,0.01-0.18,0.02-0.27,0.03c-0.15,0.02-0.3,0.04-0.45,0.07c-0.11,0.02-0.22,0.05-0.33,0.07c-0.12,0.03-0.23,0.06-0.35,0.09
					c-0.13,0.04-0.25,0.07-0.37,0.11c-0.09,0.03-0.17,0.06-0.25,0.09c-0.14,0.05-0.29,0.11-0.43,0.17
					c-0.02,0.01-0.04,0.02-0.05,0.03c-0.57,0.26-1.11,0.58-1.6,0.97l0,0c-1.86,1.45-3.07,3.71-3.07,6.26c0,3.05,1.73,5.7,4.25,7.02
					c-0.51,2.91-0.78,5.91-0.78,8.97c0,28.67,23.24,51.91,51.91,51.91c25.7,0,47.04-18.68,51.18-43.2c0.48-2.83,0.73-5.74,0.73-8.71
					C137.23,97.4,137.13,95.53,136.93,93.7z"/>
			</g>
		</g>
		<path class="st0" d="M150.19,149.57V69.92c0-11.56,9.37-20.93,20.93-20.93h0v79.65C171.11,140.2,161.75,149.57,150.19,149.57
			L150.19,149.57z"/>
		<path class="st0" d="M239.29,151.19c-7.56,0-14.58-1.31-21.06-3.92c-6.48-2.61-12.13-6.28-16.94-11
			c-4.82-4.72-8.57-10.24-11.27-16.54c-2.7-6.3-4.05-13.14-4.05-20.52c0-7.38,1.33-14.22,3.98-20.52
			c2.65-6.3,6.39-11.79,11.21-16.47c4.81-4.68,10.46-8.32,16.94-10.93c6.48-2.61,13.54-3.91,21.2-3.91c7.65,0,14.72,1.3,21.2,3.91
			c6.48,2.61,12.13,6.26,16.94,10.93c4.81,4.68,8.55,10.17,11.21,16.47c2.65,6.3,3.98,13.14,3.98,20.52
			c0,7.38-1.35,14.22-4.05,20.52c-2.7,6.3-6.46,11.81-11.27,16.54c-4.82,4.73-10.46,8.39-16.94,11
			C253.87,149.89,246.85,151.19,239.29,151.19z M239.29,132.29c4.59,0,8.84-0.81,12.76-2.43c3.91-1.62,7.36-3.89,10.33-6.82
			c2.97-2.92,5.27-6.41,6.89-10.46c1.62-4.05,2.43-8.5,2.43-13.37c0-4.86-0.81-9.29-2.43-13.3c-1.62-4-3.92-7.49-6.89-10.46
			c-2.97-2.97-6.41-5.24-10.33-6.82c-3.92-1.57-8.17-2.36-12.76-2.36s-8.84,0.79-12.76,2.36c-3.92,1.57-7.36,3.85-10.33,6.82
			c-2.97,2.97-5.26,6.46-6.88,10.46c-1.62,4.01-2.43,8.44-2.43,13.3c0,4.86,0.81,9.32,2.43,13.37c1.62,4.05,3.91,7.54,6.88,10.46
			c2.97,2.93,6.41,5.2,10.33,6.82C230.45,131.48,234.7,132.29,239.29,132.29z"/>
		<path class="st0" d="M307.47,149.57V69.92c0-11.56,9.37-20.93,20.93-20.93l0,0v43.47h39.15V69.92c0-11.56,9.37-20.93,20.93-20.93
			h0v79.65c0,11.56-9.37,20.93-20.93,20.93h0v-38.88h-39.15v17.96C328.39,140.2,319.02,149.57,307.47,149.57L307.47,149.57z"/>
		<path class="st0" d="M456.65,151.19c-7.56,0-14.58-1.31-21.06-3.92c-6.48-2.61-12.13-6.28-16.94-11
			c-4.82-4.72-8.57-10.24-11.27-16.54c-2.7-6.3-4.05-13.14-4.05-20.52c0-7.38,1.33-14.22,3.98-20.52
			c2.65-6.3,6.39-11.79,11.21-16.47c4.81-4.68,10.46-8.32,16.94-10.93c6.48-2.61,13.54-3.91,21.2-3.91c7.65,0,14.72,1.3,21.2,3.91
			c6.48,2.61,12.13,6.26,16.94,10.93c4.81,4.68,8.55,10.17,11.21,16.47c2.65,6.3,3.98,13.14,3.98,20.52
			c0,7.38-1.35,14.22-4.05,20.52c-2.7,6.3-6.46,11.81-11.27,16.54c-4.82,4.73-10.46,8.39-16.94,11
			C471.23,149.89,464.21,151.19,456.65,151.19z M456.65,132.29c4.59,0,8.84-0.81,12.76-2.43c3.91-1.62,7.36-3.89,10.33-6.82
			c2.97-2.92,5.27-6.41,6.89-10.46c1.62-4.05,2.43-8.5,2.43-13.37c0-4.86-0.81-9.29-2.43-13.3c-1.62-4-3.92-7.49-6.89-10.46
			c-2.97-2.97-6.41-5.24-10.33-6.82c-3.92-1.57-8.17-2.36-12.76-2.36c-4.59,0-8.84,0.79-12.76,2.36c-3.92,1.57-7.36,3.85-10.33,6.82
			c-2.97,2.97-5.26,6.46-6.88,10.46c-1.62,4.01-2.43,8.44-2.43,13.3c0,4.86,0.81,9.32,2.43,13.37c1.62,4.05,3.91,7.54,6.88,10.46
			c2.97,2.93,6.41,5.2,10.33,6.82C447.8,131.48,452.06,132.29,456.65,132.29z"/>
		<path class="st0" d="M561.41,151.19c-6.3,0-12.22-1.15-17.75-3.44c-5.54-2.3-10.31-5.56-14.31-9.79c-4.01-4.23-7-9.22-8.98-14.98
			l17.15-7.7c2.52,5.49,6.01,9.81,10.46,12.96c4.46,3.15,9.38,4.73,14.78,4.73c2.88,0,5.35-0.45,7.42-1.35
			c2.07-0.9,3.69-2.14,4.86-3.71c1.17-1.57,1.75-3.44,1.75-5.6c0-2.34-0.72-4.34-2.16-6.01c-1.44-1.66-3.69-2.99-6.75-3.98
			l-19.71-6.48c-8.01-2.61-14.04-6.32-18.09-11.14c-4.05-4.81-6.08-10.6-6.08-17.35c0-5.94,1.46-11.16,4.39-15.66
			c2.92-4.5,7.02-8.01,12.29-10.53c5.26-2.52,11.32-3.78,18.16-3.78c6.03,0,11.61,1.04,16.74,3.11c5.13,2.07,9.56,4.99,13.3,8.77
			c3.73,3.78,6.55,8.33,8.44,13.64l-17.01,7.69c-1.89-4.68-4.73-8.35-8.51-11c-3.78-2.65-8.1-3.98-12.96-3.98
			c-2.79,0-5.26,0.45-7.42,1.35c-2.16,0.9-3.83,2.18-5,3.85c-1.17,1.67-1.76,3.58-1.76,5.74c0,2.34,0.76,4.39,2.3,6.14
			c1.53,1.76,3.82,3.13,6.88,4.12l19.31,6.21c8.1,2.61,14.15,6.26,18.16,10.94c4,4.68,6.01,10.39,6.01,17.14
			c0,5.85-1.53,11.05-4.59,15.59c-3.06,4.55-7.27,8.1-12.62,10.67C574.75,149.91,568.52,151.19,561.41,151.19z"/>
		<path class="st0" d="M630.26,149.57V67.22h-25.52v0c0-10.07,8.16-18.23,18.23-18.23h53.33v0c0,10.07-8.16,18.23-18.23,18.23h-6.89
			v61.43C651.18,140.2,641.82,149.57,630.26,149.57L630.26,149.57z"/>
	</g>
</g>
</svg>
